<svg xmlns="http://www.w3.org/2000/svg" id="b2125e02-8ac8-43a8-8a33-098f2be5c781" data-name="Layer 1" width="205" height="28" viewBox="0 0 205 28"><rect width="5" height="28"></rect><polygon points="44.955 20.015 44.746 20.015 26.609 0 24 0 24 27.36 26.108 27.36 26.108 5.757 26.275 5.757 45.915 28 47 28 47 0 44.955 0 44.955 20.015"></polygon><polygon points="64 1.816 74.144 1.816 74.144 28 78.856 28 78.856 1.816 89 1.816 89 0 64 0 64 1.816"></polygon><polygon points="106 28 125 28 125 26.184 110.595 26.184 110.595 13.641 120.24 13.641 120.24 11.825 110.595 11.825 110.595 1.816 125 1.816 125 0 106 0 106 28"></polygon><path d="M157.6542,13.3771a8.481,8.481,0,0,0,2.1452-1.5838,6.83,6.83,0,0,0,1.3812-2.0587,6.1179,6.1179,0,0,0,.4918-2.45,6.7149,6.7149,0,0,0-.6383-2.9246,6.3621,6.3621,0,0,0-1.894-2.3122,9.2172,9.2172,0,0,0-3.1392-1.51A15.4,15.4,0,0,0,152.119.0054L151.627,0H142V28h4.667V14.8447h3.2648L159.58,28H165L154.8917,14.4223A12.3091,12.3091,0,0,0,157.6542,13.3771ZM150.4391,13H148V1h3.7059a5.1662,5.1662,0,0,1,2.1271.434,5.0585,5.0585,0,0,1,1.6827,1.2044,5.3651,5.3651,0,0,1,1.0967,1.8553A7.0506,7.0506,0,0,1,157,6.8807a6.2956,6.2956,0,0,1-.4916,2.5389,5.5107,5.5107,0,0,1-1.3708,1.92,6.2351,6.2351,0,0,1-2.08,1.226A7.65,7.65,0,0,1,150.4391,13Z"></path><polygon points="202.421 0 192.661 14.19 182.859 0 178 0 189.294 16.344 189.294 28 194.047 28 194.047 15.9 205 0 202.421 0"></polygon></svg>