<svg xmlns="http://www.w3.org/2000/svg" id="f72b18f9-cc35-49af-a0a1-531004036519" data-name="Layer 1" width="168.7001" height="49.45" viewBox="0 0 168.7001 49.45"><path d="M26.9,16.45a13.0329,13.0329,0,0,0-4.45-2.975A16.1148,16.1148,0,0,0,15.9,12.2a16.7641,16.7641,0,0,0-7.825,1.75,13.3738,13.3738,0,0,0-5.3,4.825A13.0525,13.0525,0,0,0,.85,25.85,13.6339,13.6339,0,0,0,2.675,32.9a12.7708,12.7708,0,0,0,5.1,4.85A16.0526,16.0526,0,0,0,15.45,39.5a15.6315,15.6315,0,0,0,4.775-.725,16.4041,16.4041,0,0,0,4-1.85A10.549,10.549,0,0,0,26.9,34.55V39h5.2V12.75H26.9ZM25.775,30.4A9.2686,9.2686,0,0,1,22.1,33.575a12.1542,12.1542,0,0,1-5.5,1.175,12.0358,12.0358,0,0,1-5.45-1.175A9.4613,9.4613,0,0,1,7.45,30.4a8.3426,8.3426,0,0,1,0-9.1,9.2715,9.2715,0,0,1,3.7-3.15A12.2546,12.2546,0,0,1,16.6,17a12.3757,12.3757,0,0,1,5.5,1.15,9.0849,9.0849,0,0,1,3.675,3.15,8.4748,8.4748,0,0,1,0,9.1Z" transform="translate(-0.85 -0.55)"></path><path d="M64.25,12.2a10.1407,10.1407,0,0,0-5.575,1.725A12.7718,12.7718,0,0,0,54.45,18.35v-5.6h-5.2V39h5.2V25.6a7.1807,7.1807,0,0,1,1.125-3.825,8.6009,8.6009,0,0,1,3.15-2.975,9.2,9.2,0,0,1,4.625-1.15,11.1,11.1,0,0,1,2.6.325,9.9568,9.9568,0,0,1,2.3.825l1.35-5.4a7.1429,7.1429,0,0,0-2.325-.875A14.0152,14.0152,0,0,0,64.25,12.2Z" transform="translate(-0.85 -0.55)"></path><rect x="114.65" y="12.2" width="5.15" height="26.25"></rect><path d="M167.7,18.8a12.8028,12.8028,0,0,0-5.175-4.775A16.5452,16.5452,0,0,0,154.8,12.3a16.0733,16.0733,0,0,0-4.625.65,15.1863,15.1863,0,0,0-3.825,1.7,10.6594,10.6594,0,0,0-2.55,2.15V12.7h-5.2V50h5.2V35.2a14.493,14.493,0,0,0,4.5,2.925,17.365,17.365,0,0,0,14.25-.425,12.9593,12.9593,0,0,0,5.15-4.825,13.3591,13.3591,0,0,0,1.85-7.025A13.3235,13.3235,0,0,0,167.7,18.8Zm-4.425,11.55a9.232,9.232,0,0,1-3.7,3.175A12.1943,12.1943,0,0,1,154.1,34.7a12.3538,12.3538,0,0,1-5.5-1.175,9.1976,9.1976,0,0,1-3.725-3.175,8.3465,8.3465,0,0,1,0-9.025A9.0923,9.0923,0,0,1,148.6,18.2a12.5793,12.5793,0,0,1,5.5-1.15,12.4164,12.4164,0,0,1,5.475,1.15,9.1244,9.1244,0,0,1,3.7,3.125,8.3465,8.3465,0,0,1,0,9.025Z" transform="translate(-0.85 -0.55)"></path><path d="M118.1.55a3.2115,3.2115,0,0,0-2.625,1,3.4439,3.4439,0,0,0-.825,2.25,3.3415,3.3415,0,0,0,.825,2.35,3.4048,3.4048,0,0,0,2.625.9,3.2243,3.2243,0,0,0,2.6-1,3.3837,3.3837,0,0,0,.85-2.25,3.2826,3.2826,0,0,0-.85-2.35A3.4182,3.4182,0,0,0,118.1.55Z" transform="translate(-0.85 -0.55)"></path><polygon points="90.85 4.4 85.7 4.4 85.7 12.2 78.1 12.2 78.1 17.2 85.7 17.2 85.7 38.45 90.85 38.45 90.85 17.2 99.85 17.2 99.85 12.2 90.85 12.2 90.85 4.4"></polygon></svg>