<svg xmlns="http://www.w3.org/2000/svg" id="fc860d10-2f20-4632-803a-dc9d0d72b674" data-name="Layer 1" width="154.5" height="35.85" viewBox="0 0 154.5 35.85"><polygon points="122.7 6.8 129.2 6.8 129.2 35.4 137.05 35.4 137.05 6.8 143.55 6.8 143.55 0 122.7 0 122.7 6.8"></polygon><path d="M20.6,20.125a7.4054,7.4054,0,0,0-1.8-1.675,6.63,6.63,0,0,0-2-.9v-.1a7.61,7.61,0,0,0,3.125-2.725A8.8011,8.8011,0,0,0,21.2,9.7a9.3292,9.3292,0,0,0-1.025-4.65,7.7725,7.7725,0,0,0-2.55-2.775A9.4694,9.4694,0,0,0,14.25.95,18.8626,18.8626,0,0,0,10.75.6H.15V36H11.9a13.94,13.94,0,0,0,3.775-.525,9.6244,9.6244,0,0,0,3.375-1.7,8.573,8.573,0,0,0,2.425-3.1A10.9858,10.9858,0,0,0,22.4,25.9a10.0967,10.0967,0,0,0-.5-3.3A8.4759,8.4759,0,0,0,20.6,20.125ZM7.6,7.25h2.7A4.418,4.418,0,0,1,13,8.1,3.3735,3.3735,0,0,1,14.15,11a3.5453,3.5453,0,0,1-1.175,3,4.211,4.211,0,0,1-2.625.9H7.6ZM13.575,28.3A4.4155,4.4155,0,0,1,10.6,29.35h-3v-8.6h2.9a4.9475,4.9475,0,0,1,1.525.25,4.1261,4.1261,0,0,1,1.4.775,3.7634,3.7634,0,0,1,1,1.35A4.8819,4.8819,0,0,1,14.8,25.15,3.921,3.921,0,0,1,13.575,28.3Z" transform="translate(-0.15 -0.6)"></path><rect x="81.4" width="8.05" height="35.4"></rect><path d="M153.45,28.75a4.1486,4.1486,0,0,0-6.125,0,4.7152,4.7152,0,0,0-1.175,3.2,4.5977,4.5977,0,0,0,1.175,3.2,4.2572,4.2572,0,0,0,6.125,0,4.542,4.542,0,0,0,1.2-3.2A4.6575,4.6575,0,0,0,153.45,28.75Z" transform="translate(-0.15 -0.6)"></path><path d="M59.85.6,51.25,36h8l1.45-6.45h7.95L70.1,36h8.35L69.9.6ZM61.6,23.35l3-15.05h.2l2.85,15.05Z" transform="translate(-0.15 -0.6)"></path><path d="M46.3,19.2a7.4292,7.4292,0,0,0,1.625-1.8A9.7151,9.7151,0,0,0,49.1,14.75a12.5526,12.5526,0,0,0,.45-3.5q0-5.3-2.85-7.975T38.7.6H27.35V36h7.7V21.9H37.4L42.15,36H50.6L44.55,20.2A6.3167,6.3167,0,0,0,46.3,19.2Zm-5.925-4.025A4.4742,4.4742,0,0,1,37.4,16.25H35.05V7.3h2.5a6.0577,6.0577,0,0,1,1.425.175A3.2363,3.2363,0,0,1,40.3,8.15a3.62,3.62,0,0,1,.975,1.35,5.4961,5.4961,0,0,1,.375,2.2A4.3059,4.3059,0,0,1,40.375,15.175Z" transform="translate(-0.15 -0.6)"></path><polygon points="112.85 21.85 112.7 21.85 104.55 0 95.75 0 95.75 35.4 102.9 35.4 102.7 13.85 102.85 13.85 111.05 35.4 119.6 35.4 119.6 0 112.7 0 112.85 21.85"></polygon></svg>