<svg xmlns="http://www.w3.org/2000/svg" id="ba65a50b-90ba-40c7-a378-b590698051cf" data-name="Layer 1" width="194" height="32" viewBox="0 0 194 32"><path d="M18.709,11.7062a8.2626,8.2626,0,0,0-3.1746-2.307,10.6573,10.6573,0,0,0-4.1058-.769,11.8231,11.8231,0,0,0-5.8624,1.4526,10.4253,10.4253,0,0,0-4.0847,4.1014A12.3041,12.3041,0,0,0,0,20.2937a12.4254,12.4254,0,0,0,1.4815,6.1309,10.3892,10.3892,0,0,0,4.0847,4.1228A11.8231,11.8231,0,0,0,11.4286,32a10.8457,10.8457,0,0,0,4.254-.8118,8.1934,8.1934,0,0,0,3.2381-2.4352v2.9479H24V0H18.709Zm-.6335,11.9824a6.3644,6.3644,0,0,1-2.51,2.4521A7.3588,7.3588,0,0,1,12,27a7.3588,7.3588,0,0,1-3.566-.8593,6.3644,6.3644,0,0,1-2.5095-2.4521A7.2147,7.2147,0,0,1,5,20a7.2151,7.2151,0,0,1,.9245-3.6887,6.3648,6.3648,0,0,1,2.5095-2.452A7.3588,7.3588,0,0,1,12,13a7.3588,7.3588,0,0,1,3.566.8593,6.3648,6.3648,0,0,1,2.51,2.452A7.2151,7.2151,0,0,1,19,20,7.2147,7.2147,0,0,1,18.0755,23.6886Z"></path><path d="M55.5027,9.4506A11.8194,11.8194,0,0,0,49.6264,8a12.124,12.124,0,0,0-5.9817,1.4716,10.6,10.6,0,0,0-4.1493,4.1A11.732,11.732,0,0,0,38,19.4789a11.5614,11.5614,0,0,0,1.5375,5.95,10.61,10.61,0,0,0,4.36,4.1A13.9221,13.9221,0,0,0,50.4268,31a13.9854,13.9854,0,0,0,5.2234-.925,9.5093,9.5093,0,0,0,3.8333-2.7331l-2.8223-3.2377a8.2073,8.2073,0,0,1-6.1081,2.4388,7.95,7.95,0,0,1-4.8654-1.4507,6.105,6.105,0,0,1-2.4221-3.9314h17.65Q61,20.1517,61,19.6051a12.3491,12.3491,0,0,0-1.4533-6.0759A10.2832,10.2832,0,0,0,55.5027,9.4506ZM43,18a7.0579,7.0579,0,0,1,2.1667-4.3616A6.1951,6.1951,0,0,1,49.5214,12a6.1264,6.1264,0,0,1,4.3763,1.6615A6.9773,6.9773,0,0,1,56,18Z"></path><polygon points="83.606 25.056 76.537 8 71 8 80.753 31 86.247 31 96 8 90.889 8 83.606 25.056"></polygon><path d="M155.249,8a12.5617,12.5617,0,0,0-4.6349.8093,8.5409,8.5409,0,0,0-3.4107,2.3852V8.2556H142V31h5.4658V19.5a6.9336,6.9336,0,0,1,1.749-5.09,6.4022,6.4022,0,0,1,4.7662-1.7676,5.4127,5.4127,0,0,1,4.11,1.512,6.2783,6.2783,0,0,1,1.443,4.4935V31H165V17.9667q0-4.9407-2.6673-7.4538A9.9085,9.9085,0,0,0,155.249,8Z"></path><path d="M192.4821,26.6889a4.8292,4.8292,0,0,1-3.0357.9348,3.1273,3.1273,0,0,1-2.3852-.8711,3.5432,3.5432,0,0,1-.824-2.5281V13.4324h6.2016V9.1836h-6.2016V4h-5.4209V9.1836H177v4.2488h3.8163v10.92a7.4355,7.4355,0,0,0,2.0816,5.6934A8.2886,8.2886,0,0,0,188.7959,32a10.6538,10.6538,0,0,0,2.884-.3824A6.43,6.43,0,0,0,194,30.47Z"></path><path d="M123.5027,9.4506A11.8194,11.8194,0,0,0,117.6264,8a12.124,12.124,0,0,0-5.9817,1.4716,10.6,10.6,0,0,0-4.1493,4.1A11.732,11.732,0,0,0,106,19.4789a11.5614,11.5614,0,0,0,1.5375,5.95,10.61,10.61,0,0,0,4.36,4.1,15.2157,15.2157,0,0,0,11.7527.5467,9.5093,9.5093,0,0,0,3.8333-2.7331l-2.8223-3.2377a8.2073,8.2073,0,0,1-6.1081,2.4388,7.95,7.95,0,0,1-4.8654-1.4507,6.105,6.105,0,0,1-2.4221-3.9314h17.65Q129,20.1517,129,19.6051a12.3491,12.3491,0,0,0-1.4533-6.0759A10.2832,10.2832,0,0,0,123.5027,9.4506ZM111,18a7.0579,7.0579,0,0,1,2.1667-4.3616A6.1951,6.1951,0,0,1,117.5214,12a6.1264,6.1264,0,0,1,4.3763,1.6615A6.9773,6.9773,0,0,1,124,18Z"></path></svg>