<svg xmlns="http://www.w3.org/2000/svg" id="b15afb43-d673-4b4d-9020-c28c8330473f" data-name="Layer 1" width="165.8" height="65.2471" viewBox="0 0 165.8 65.2471"><path d="M53.6,45.997v-6.15a12.336,12.336,0,0,0-.825-4.95,4.2925,4.2925,0,0,0-2.825-2.45v-.1q3.6-1.45,3.6-6.9v-2.15q0-4.1-1.95-6.075t-6.2-1.975H37.25v35h5.5v-15h1.9a3.2784,3.2784,0,0,1,2.675.95,5.4309,5.4309,0,0,1,.775,3.35l.0006,6.6929A21.7945,21.7945,0,0,0,48.2,48.647a8.0192,8.0192,0,0,0,.4,1.6h5.6a6.0858,6.0858,0,0,1-.5-1.825A23.5345,23.5345,0,0,1,53.6,45.997Zm-5.55-19.45a4.0164,4.0164,0,0,1-.825,2.85,3.3011,3.3011,0,0,1-2.475.85h-2v-10h2.5a2.5493,2.5493,0,0,1,2.125.85,4.4422,4.4422,0,0,1,.675,2.75Z" transform="translate(-0.6)"></path><polygon points="0 20.247 5.75 20.247 5.75 50.247 11.25 50.247 11.25 20.247 17 20.247 17 15.247 0 15.247 0 20.247"></polygon><polygon points="123.2 36.197 123.1 36.197 117.75 15.247 110.85 15.247 110.85 50.247 115.75 50.247 115.75 24.697 115.85 24.697 122.45 50.247 128.1 50.247 128.1 15.247 123.2 15.247 123.2 36.197"></polygon><path d="M78.65,15.247l-5.7,35h5.1l1-6.85H85.3v-.1l1,6.95h5.5l-5.7-35Zm1.05,23.4,2.4-17.3h.1l2.45,17.3Z" transform="translate(-0.6)"></path><path d="M164.35,17.447q-2.05-2.2-6.15-2.2h-8.4v35h8.4q4.1,0,6.15-2.2t2.05-6.45v-17.7Q166.4,19.6471,164.35,17.447Zm-3.45,24.4a3.8169,3.8169,0,0,1-.725,2.6,2.6572,2.6572,0,0,1-2.075.8h-2.8v-25h2.8a2.6572,2.6572,0,0,1,2.075.8,3.8168,3.8168,0,0,1,.725,2.6Z" transform="translate(-0.6)"></path><rect x="24.6344" width="1" height="65.2471"></rect><rect x="61.6344" width="1" height="65.2471"></rect><rect x="98.6344" width="1" height="65.2471"></rect><rect x="135.6344" width="1" height="65.2471"></rect></svg>