<svg xmlns="http://www.w3.org/2000/svg" id="a7ba4357-1027-479a-a272-61df0ed12c3a" data-name="Layer 1" width="160.9" height="35.8" viewBox="0 0 160.9 35.8"><path d="M126.7,6.55a3.0556,3.0556,0,0,0,2.3-1,3.3611,3.3611,0,0,0,.95-2.4A3.0759,3.0759,0,0,0,126.8,0a3.4173,3.4173,0,0,0-2.45.9,3.0293,3.0293,0,0,0-.95,2.3,3.2532,3.2532,0,0,0,.95,2.4A3.1921,3.1921,0,0,0,126.7,6.55Z"></path><path d="M34.65,31.7q-.2,0-1,.7a4.6228,4.6228,0,0,1-2.7,1.5q-2.35,0-2.8-2.9-.3364-2.2116-.3495-14.6857l0-2.0643q.5.05.7.05,2.5,0,4.55-.05.65,0,.65-.7,0-.3-.2-.3a.4442.4442,0,0,0-.2.05,14.7586,14.7586,0,0,1-2.95.2,4.3022,4.3022,0,0,1-2.45-.4q-.4-.4-.35-4.7,0-.7-.3-.7-.25,0-.7.7-3.4,4.95-8.1,5.1-.55.1-.55.4,0,.4,1.5.4a4.1236,4.1236,0,0,1,1.5.15q.25.15.25,1.05l.05,3.6v4.5l.05,1.05,0,4.7105q.0044,2.4277.0748,3.04a3.2478,3.2478,0,0,0,.575,1.4q1.25,1.95,5.2,1.95a9.3476,9.3476,0,0,0,6.75-2.35q.95-.9.95-1.45Q34.8,31.7,34.65,31.7Z"></path><path d="M3.65,28.4A3.5869,3.5869,0,0,0,0,32.05a3.39,3.39,0,0,0,1.05,2.525A3.5762,3.5762,0,0,0,3.65,35.6,3.4226,3.4226,0,0,0,7.2,32.05a3.5312,3.5312,0,0,0-1.05-2.6A3.414,3.414,0,0,0,3.65,28.4Z"></path><path d="M61.45,28.75q-.25,0-.65.95a7.678,7.678,0,0,1-2.475,3.1A5.61,5.61,0,0,1,54.95,34a4.8279,4.8279,0,0,1-3.55-1.45q-2.45-2.45-2.45-8.3,0-1.25.15-3.05,1.9-.1,3.15-.1,8.1-.05,9.25-.15a15.9183,15.9183,0,0,0-.3-2.15,7.1473,7.1473,0,0,0-3.25-4.45,10.1158,10.1158,0,0,0-5.45-1.4,10.4461,10.4461,0,0,0-7.85,3.275A11.3268,11.3268,0,0,0,41.5,24.4a11.0113,11.0113,0,0,0,3.25,8.2,11.335,11.335,0,0,0,8.3,3.2,8.6341,8.6341,0,0,0,7.3-3.85,5.5413,5.5413,0,0,0,1.3-2.9Q61.65,28.75,61.45,28.75ZM52.7,13.5A2.1266,2.1266,0,0,1,54.8,15a15.6988,15.6988,0,0,1,.55,5.35q-.75-.05-1.75-.05-3.35,0-4.4.05Q49.65,13.5,52.7,13.5Z"></path><path d="M133,34.5a5.1368,5.1368,0,0,1-2.575-.35q-.375-.35-.375-2.4v-9.4L130,16q-.15-2.7-.25-3.3a24.6639,24.6639,0,0,1-9.4,1.7q-.75,0-.75.35,0,.3.175.35a7.6837,7.6837,0,0,0,1.225.05q1.65,0,1.975.375A4.497,4.497,0,0,1,123.3,17.8V32.15a3.6982,3.6982,0,0,1-.3,1.975q-.3.3251-2,.375-1.15.05-1.15.35,0,.4.6.4h.45a7.0187,7.0187,0,0,1,.75-.05l4.8-.1,6.65.1q.45,0,.45-.35T133,34.5Z"></path><path d="M86.45,31.7q-.2,0-1,.7a4.6228,4.6228,0,0,1-2.7,1.5q-2.35,0-2.8-2.9-.3366-2.2116-.35-14.6857L79.6,14.25q.5.05.7.05,2.5,0,4.55-.05.65,0,.65-.7,0-.3-.2-.3a.4442.4442,0,0,0-.2.05,14.7586,14.7586,0,0,1-2.95.2,4.3022,4.3022,0,0,1-2.45-.4q-.4-.4-.35-4.7,0-.7-.3-.7-.25,0-.7.7-3.4,4.95-8.1,5.1-.55.1-.55.4,0,.4,1.5.4a4.1236,4.1236,0,0,1,1.5.15q.25.15.25,1.05L73,19.1l0,4.5073q.0037.08.05,1.0427l0,4.7105q.0041,2.4277.0747,3.04a3.2478,3.2478,0,0,0,.575,1.4q1.25,1.95,5.2,1.95a9.3476,9.3476,0,0,0,6.75-2.35q.95-.9.95-1.45Q86.6,31.7,86.45,31.7Z"></path><path d="M160.5,30.4q-.25,0-.55.4-2.45,3.05-4.8,3.05a4.7333,4.7333,0,0,1-3.8-1.9q-2-2.5-2-8.3,0-10.15,4.55-10.15a2.5082,2.5082,0,0,1,1.775.675A2.1415,2.1415,0,0,1,156.4,15.8a3.8087,3.8087,0,0,1-.325,1.175,3.9964,3.9964,0,0,0-.325,1.425q0,2.35,2.65,2.35a2.3518,2.3518,0,0,0,1.8-.75,2.743,2.743,0,0,0,.7-1.95,4.3606,4.3606,0,0,0-2.175-3.65,9.1524,9.1524,0,0,0-5.325-1.5,11.087,11.087,0,0,0-8.25,3.425,11.5842,11.5842,0,0,0-3.35,8.425,10.74,10.74,0,0,0,3.175,7.825A10.3751,10.3751,0,0,0,152.65,35.8a8.79,8.79,0,0,0,6.25-2.45q1.8-1.7,1.8-2.65Q160.7,30.4,160.5,30.4Z"></path><path d="M107.9,12.9a4.2381,4.2381,0,0,0-2.925,1,8.9635,8.9635,0,0,0-2.075,3.45v-2.1a9.526,9.526,0,0,0-.25-2.3,24.6252,24.6252,0,0,1-8.3,1.6h-1a6.8673,6.8673,0,0,0-.85-.05q-.4,0-.4.3t.175.35a14.7242,14.7242,0,0,0,1.475.15,2.9212,2.9212,0,0,1,2.125.8,4.1948,4.1948,0,0,1,.475,2.35l.05,13.5q0,1.85-.425,2.225A4.8834,4.8834,0,0,1,93.5,34.6l-.133.0035q-.567.0315-.567.3465,0,.35.55.35.65,0,1.15-.05h1.9l2.45-.05q2.45-.05,2.25-.05h.3065l.58.0006q3.0677.0053,3.4637.0493h1q.45,0,.45-.4,0-.3-.55-.35-1.1,0-1.9-.05a1.2967,1.2967,0,0,1-1.35-1.45l-.05-4.4.0006-4.0483A29.5946,29.5946,0,0,1,103.55,17.55q.9-2.65,2.6-2.65.65,0,.65.45a.6171.6171,0,0,1-.15.35,2.7936,2.7936,0,0,0-.65,1.7q0,2.5,2.7,2.5a2.8509,2.8509,0,0,0,2.2-.925,3.3727,3.3727,0,0,0,.85-2.375,3.5484,3.5484,0,0,0-1.075-2.65A3.8043,3.8043,0,0,0,107.9,12.9Z"></path></svg>